<svg width="366" height="143" viewBox="0 0 366 143" fill="none" xmlns="http://www.w3.org/2000/svg">
<path d="M365 1L353.529 14.0157C344.214 24.5845 331.137 31.0947 317.09 32.1571L289.603 34.2359C282.966 34.7378 276.307 33.6253 270.194 30.9934V30.9934C254.188 24.1016 235.576 28.0216 223.709 40.7843L214.32 50.8824C200.612 65.6253 178.058 68.0775 161.387 56.7926V56.7926C159.146 55.276 157.053 53.5186 155.174 51.5716V51.5716C141.196 37.085 118.482 35.636 102.776 48.2289L88.6978 59.5171C79.7953 66.6551 73.3828 76.4298 70.3804 87.4386L66.407 102.008C65.1418 106.647 63.2393 111.088 60.7538 115.205V115.205C52.9699 128.097 39.9798 136.982 25.1428 139.562L18.5918 140.701C15.5363 141.233 12.4407 141.5 9.33933 141.5H0" stroke="white" stroke-width="2"/>
</svg>
