<svg width="123" height="273" viewBox="0 0 123 273" fill="none" xmlns="http://www.w3.org/2000/svg">
<path d="M121.5 1.5C98.8134 29.0215 70.3347 41.0974 56.3997 44.3992C54.4766 44.8548 52.5715 45.3587 50.7279 46.071L41.476 49.6456C35.4641 51.9684 31.5 57.7497 31.5 64.1947V64.1947C31.5 68.8236 33.5561 73.2134 37.1121 76.1768L43.5 81.5L47.8538 85.184C53.2253 89.7291 55.8477 96.7398 54.7778 103.694V103.694C53.9598 109.011 51.0571 113.783 46.7119 116.953L40.1448 121.746C36.7366 124.233 32.9545 126.162 28.9403 127.461L26.9777 128.095C21.0878 130.001 15.7545 133.382 11.5078 137.886V137.886C5.09895 144.683 1.5 153.703 1.5 163.045V163.045C1.5 168.929 2.91704 174.725 5.63122 179.945L53.5 272" stroke="white" stroke-width="2"/>
</svg>
